<svg width="48" height="48" viewBox="0 0 48 48" fill="none" xmlns="http://www.w3.org/2000/svg">
  <!-- Digital Lotus Logo with Pink & Green Theme -->
  <defs>
    <linearGradient id="pinkGreenGradient" x1="0%" y1="0%" x2="100%" y2="100%">
      <stop offset="0%" style="stop-color:#F5BABB;stop-opacity:1" />
      <stop offset="100%" style="stop-color:#59AC77;stop-opacity:1" />
    </linearGradient>
  </defs>

  <!-- Outer petals (pink) -->
  <path d="M24 8 C28 8, 32 12, 32 16 C32 20, 28 20, 24 20 C20 20, 16 20, 16 16 C16 12, 20 8, 24 8 Z" fill="#F5BABB" opacity="0.8"/>
  <path d="M8 24 C8 20, 12 16, 16 16 C20 16, 20 20, 20 24 C20 28, 20 32, 16 32 C12 32, 8 28, 8 24 Z" fill="#F5BABB" opacity="0.8"/>
  <path d="M40 24 C40 20, 36 16, 32 16 C28 16, 28 20, 28 24 C28 28, 28 32, 32 32 C36 32, 40 28, 40 24 Z" fill="#F5BABB" opacity="0.8"/>
  <path d="M24 40 C20 40, 16 36, 16 32 C16 28, 20 28, 24 28 C28 28, 32 28, 32 32 C32 36, 28 40, 24 40 Z" fill="#F5BABB" opacity="0.8"/>

  <!-- Inner petals (green) -->
  <path d="M24 12 C26 12, 28 14, 28 16 C28 18, 26 18, 24 18 C22 18, 20 18, 20 16 C20 14, 22 12, 24 12 Z" fill="#59AC77" opacity="0.9"/>
  <path d="M12 24 C12 22, 14 20, 16 20 C18 20, 18 22, 18 24 C18 26, 18 28, 16 28 C14 28, 12 26, 12 24 Z" fill="#59AC77" opacity="0.9"/>
  <path d="M36 24 C36 22, 34 20, 32 20 C30 20, 30 22, 30 24 C30 26, 30 28, 32 28 C34 28, 36 26, 36 24 Z" fill="#59AC77" opacity="0.9"/>
  <path d="M24 36 C22 36, 20 34, 20 32 C20 30, 22 30, 24 30 C26 30, 28 30, 28 32 C28 34, 26 36, 24 36 Z" fill="#59AC77" opacity="0.9"/>

  <!-- Digital geometric center -->
  <circle cx="24" cy="24" r="6" fill="url(#pinkGreenGradient)"/>
  <circle cx="24" cy="24" r="4" fill="#fff" opacity="0.3"/>

  <!-- Tech accents -->
  <circle cx="24" cy="20" r="1" fill="#59AC77"/>
  <circle cx="28" cy="24" r="1" fill="#F5BABB"/>
  <circle cx="24" cy="28" r="1" fill="#59AC77"/>
  <circle cx="20" cy="24" r="1" fill="#F5BABB"/>
</svg>
